<svg enable-background="new 0 0 52 52" height="52" viewBox="0 0 52 52" width="52" xmlns="http://www.w3.org/2000/svg"><g fill="#304cfd"><path d="m44.3 6.5c-9 0-15.9 7-15.9 16v21.5c0 .8.7 1.5 1.5 1.5h17c.8 0 1.5-.7 1.5-1.5v-17c0-.8-.7-1.5-1.5-1.5h-12.5v-3c0-5 4.9-10 9.9-10h2.6c.8 0 1.5-.7 1.5-1.5v-3c0-.8-.7-1.5-1.5-1.5z"/><path d="m19.5 6.5c-9 0-15.9 7-15.9 16v21.5c0 .8.7 1.5 1.5 1.5h17c.8 0 1.5-.7 1.5-1.5v-17c0-.8-.7-1.5-1.5-1.5h-12.5v-3c0-5 4.9-10 9.9-10h2.6c.8 0 1.5-.7 1.5-1.5v-3c0-.8-.7-1.5-1.5-1.5z"/></g></svg>
